<svg width="24" height="24" viewBox="0 0 24 24" fill="none" xmlns="http://www.w3.org/2000/svg">
<path d="M21.7124 20.3249L20.9624 19.1249C20.8124 18.9 20.7374 18.6749 20.7374 18.4124V10.5374C20.7374 8.32495 19.7999 6.22495 18.0374 4.68745C16.6124 3.41245 14.7749 2.62495 12.8249 2.43745V1.49995C12.8249 1.04995 12.4499 0.637451 11.9999 0.637451C11.5499 0.637451 11.1374 1.01245 11.1374 1.49995V2.43745C11.0624 2.43745 10.9874 2.43745 10.9124 2.47495C6.5249 2.96245 3.2249 6.48745 3.2249 10.6875V18.4124C3.1874 18.7874 3.1124 18.975 3.0374 19.0875L2.2874 20.3249C2.0624 20.6999 2.0624 21.1875 2.2874 21.525C2.5124 21.8624 2.8874 22.0875 3.2999 22.0875H11.0999V22.4999C11.0999 22.9499 11.4749 23.3624 11.9624 23.3624C12.4499 23.3624 12.7874 22.9874 12.7874 22.4999V22.0875H20.6624C21.0749 22.0875 21.4499 21.8624 21.6749 21.525C21.9374 21.15 21.9374 20.6999 21.7124 20.3249ZM11.0999 4.16245C13.2749 3.93745 15.3749 4.57495 16.9124 5.96245C18.2624 7.19995 19.0499 8.81245 19.0499 10.575V16.4999H4.9124V10.7249C4.9124 7.34995 7.5749 4.53745 11.0999 4.16245ZM4.1999 20.4L4.4999 19.9124C4.7249 19.4999 4.8374 19.0875 4.9124 18.5625V18.15H19.0499V18.4499C19.0499 19.0124 19.1999 19.5374 19.5374 20.0624L19.7624 20.4374H4.1999V20.4Z" fill="#111928"/>
</svg>
