<svg width="22" height="20" viewBox="0 0 22 20" fill="none" xmlns="http://www.w3.org/2000/svg">
<g clip-path="url(#clip0_619_2644)">
<path d="M10.999 3.02496C8.50877 3.02496 6.46155 4.14421 4.89175 5.58487C3.42127 6.93855 2.4053 8.54559 1.88585 9.67996C2.4053 10.8143 3.42127 12.4214 4.88793 13.7751C6.46154 15.2157 8.50877 16.335 10.999 16.335C13.4893 16.335 15.5365 15.2157 17.1063 13.7751C18.5768 12.4214 19.5928 10.8143 20.1122 9.67996C19.5928 8.54559 18.5768 6.93855 17.1102 5.58487C15.5365 4.14421 13.4893 3.02496 10.999 3.02496ZM3.6428 4.25765C5.44175 2.60146 7.91293 1.20996 10.999 1.20996C14.0852 1.20996 16.5563 2.60146 18.3553 4.25765C20.1428 5.90249 21.3383 7.86496 21.9074 9.21487C22.0334 9.51359 22.0334 9.84634 21.9074 10.1451C21.3383 11.495 20.1428 13.4612 18.3553 15.1023C16.5563 16.7585 14.0852 18.15 10.999 18.15C7.91293 18.15 5.44175 16.7585 3.6428 15.1023C1.8553 13.4612 0.659809 11.495 0.0945312 10.1451C-0.0315104 9.84634 -0.0315104 9.51359 0.0945312 9.21487C0.659809 7.86496 1.8553 5.89871 3.6428 4.25765ZM10.999 12.705C12.6872 12.705 14.0546 11.3513 14.0546 9.67996C14.0546 8.00865 12.6872 6.65496 10.999 6.65496C10.9723 6.65496 10.9494 6.65496 10.9227 6.65496C10.9723 6.84781 10.999 7.05199 10.999 7.25996C10.999 8.59474 9.90286 9.67996 8.5546 9.67996C8.34453 9.67996 8.13828 9.65349 7.94349 9.60434C7.94349 9.63081 7.94349 9.65349 7.94349 9.67996C7.94349 11.3513 9.31085 12.705 10.999 12.705ZM10.999 4.83996C12.2957 4.83996 13.5392 5.34989 14.456 6.25756C15.3729 7.16524 15.8879 8.39631 15.8879 9.67996C15.8879 10.9636 15.3729 12.1947 14.456 13.1024C13.5392 14.01 12.2957 14.52 10.999 14.52C9.70243 14.52 8.45892 14.01 7.54208 13.1024C6.62523 12.1947 6.11016 10.9636 6.11016 9.67996C6.11016 8.39631 6.62523 7.16524 7.54208 6.25756C8.45892 5.34989 9.70243 4.83996 10.999 4.83996Z" fill="black"/>
</g>
<defs>
<clipPath id="clip0_619_2644">
<rect width="22" height="19.36" fill="white"/>
</clipPath>
</defs>
</svg>
