<svg width="27" height="27" viewBox="0 0 27 27" fill="none" xmlns="http://www.w3.org/2000/svg">
<path d="M2.24812 11.6433L2.81098 11.2791V21.7687C2.81098 23.3005 4.037 24.5265 5.56879 24.5265H21.4313C22.9631 24.5265 24.1891 23.3005 24.1891 21.7687V11.2791L24.752 11.6433L24.7516 11.6438L24.7616 11.6488L24.7725 11.6542C24.933 11.7345 25.12 11.8281 25.3125 11.8281C25.6393 11.8281 26.0089 11.6442 26.1973 11.3617L26.1985 11.3599C26.5229 10.85 26.3839 10.1974 25.8727 9.87196C25.8726 9.87192 25.8725 9.87188 25.8725 9.87184L14.9885 2.86898L14.9885 2.86897L14.9871 2.86805C14.0698 2.3002 12.889 2.29875 12.0114 2.8691C12.0113 2.86914 12.0112 2.86919 12.0112 2.86923L1.12718 9.87211L1.12714 9.87204L1.12395 9.87428C0.660385 10.1988 0.519267 10.8472 0.800229 11.3155L0.800017 11.3156L0.804056 11.3214C1.12855 11.7849 1.77697 11.926 2.24524 11.6451L2.24527 11.6451L2.24812 11.6433ZM13.1322 4.64032L13.1323 4.64033L13.1336 4.63941C13.3532 4.49305 13.6469 4.49305 13.8664 4.63941L13.8664 4.63942L13.8678 4.64032L22.0907 9.92642V21.7687C22.0907 22.1353 21.7979 22.4281 21.4313 22.4281H5.56879C5.20215 22.4281 4.90942 22.1353 4.90942 21.7687V9.92642L13.1322 4.64032Z" fill="black" stroke="black" stroke-width="0.2"/>
</svg>
