<svg width="29" height="29" viewBox="0 0 29 29" fill="none" xmlns="http://www.w3.org/2000/svg">
<path fill-rule="evenodd" clip-rule="evenodd" d="M20.1771 20.1763C23.4587 16.8946 23.4587 11.5895 20.1771 8.30788C16.8955 5.02627 11.5904 5.02627 8.30877 8.30788C5.02717 11.5895 5.02717 16.8946 8.30877 20.1763C11.5904 23.4579 16.8955 23.4579 20.1771 20.1763ZM9.49561 9.49472C12.1126 6.87774 16.3733 6.87774 18.9903 9.49472C21.6073 12.1117 21.6073 16.3724 18.9903 18.9894C16.3733 21.6064 12.1126 21.6064 9.49561 18.9894C6.87863 16.3724 6.87863 12.1117 9.49561 9.49472ZM15.0797 15.0788V19.3395H13.4062V15.0788H9.14549V13.4053H13.4062V9.1446H15.0797V13.4053H19.3404V15.0788H15.0797Z" fill="white"/>
</svg>
